ffmpeg started on 2023-02-26 at 22:47:06
Report written to "D:/java/GitHub/pornMagnetSpringBoot/jiuse911Modeul/Logs/2023-02-26_22-46-44-364_ffreport.log"
Command line:
"D:\\java\\GitHub\\pornMagnetSpringBoot\\ffmpeg.exe" -loglevel warning -i "concat:00.ts|01.ts|02.ts|03.ts|04.ts|05.ts|06.ts|07.ts|08.ts|09.ts|10.ts|11.ts|" -map "0:v?" -map "0:a?" -map "0:s?" -metadata "date=2023-02-26T22:47:06.7727575+08:00" -metadata "encoding_tool=" -metadata "title=" -metadata "copyright=" -metadata "comment=" -metadata:s:a:0 "handler_name=" -metadata:s:a:0 "handler=" -c copy -y -bsf:a aac_adtstoasc "D:\\java\\GitHub\\pornMagnetSpringBoot\\Downloads\\00\xba\xf3\xbc\xab\xc6\xb7\xbe\xde\xc8\xe9\xd1\xa7\xc9\xfa\xc3\xc3\xc6\xef\x8c\xc5\xd2\xf9\xbd\xd0\xb8\xdf\xb3\xb1.mp4"
ffmpeg version N-94813-g85386c36e3-ffmpeg-for-N_m3u8DL-CLI Copyright (c) 2000-2019 the FFmpeg developers
  built with gcc 8.2.0 (GCC)
  libavutil      56. 35.100 / 56. 35.100
  libavcodec     58. 56.101 / 58. 56.101
  libavformat    58. 32.104 / 58. 32.104
  libavfilter     7. 58.102 /  7. 58.102
  libavresample   4.  0.  0 /  4.  0.  0
  libswresample   3.  6.100 /  3.  6.100
Input #0, mpegts, from 'concat:00.ts|01.ts|02.ts|03.ts|04.ts|05.ts|06.ts|07.ts|08.ts|09.ts|10.ts|11.ts|':
  Duration: 00:01:18.29, start: 1.445333, bitrate: 915 kb/s
  Program 1 
    Metadata:
      service_name    : Service01
      service_provider: FFmpeg
    Stream #0:0[0x100]: Video: h264 ([27][0][0][0] / 0x001B), yuv420p(progressive), 600x336 [SAR 63:200 DAR 9:16], 30 fps, 30 tbr, 90k tbn, 60 tbc
    Stream #0:1[0x101](eng): Audio: aac ([15][0][0][0] / 0x000F), 48000 Hz, stereo, fltp, 126 kb/s
Output #0, mp4, to 'D:\java\GitHub\pornMagnetSpringBoot\Downloads\00后极品巨乳学生妹骑屌淫叫高潮.mp4':
  Metadata:
    date            : 2023-02-26T22:47:06.7727575+08:00
    encoder         : Lavf58.32.104
    Stream #0:0: Video: h264 (avc1 / 0x31637661), yuv420p(progressive), 600x336 [SAR 63:200 DAR 9:16], q=2-31, 30 fps, 30 tbr, 90k tbn, 90k tbc
    Stream #0:1(eng): Audio: aac (mp4a / 0x6134706D), 48000 Hz, stereo, fltp, 126 kb/s
Stream mapping:
  Stream #0:0 -> #0:0 (copy)
  Stream #0:1 -> #0:1 (copy)
Press [q] to stop, [?] for help
frame= 2348 fps=0.0 q=-1.0 Lsize=    8283kB time=00:01:18.21 bitrate= 867.6kbits/s speed=1.65e+03x    
video:6954kB audio:1253kB subtitle:0kB other streams:0kB global headers:0kB muxing overhead: 0.924679%
